<svg width="269" height="69" viewBox="0 0 269 69" fill="none" xmlns="http://www.w3.org/2000/svg">
<g clip-path="url(#clip0_1_46)">
<path d="M55.9571 17.1357V14.7331C55.9571 13.558 55.4903 12.4311 54.6594 11.6002C53.8285 10.7694 52.7016 10.3026 51.5266 10.3026H33.9633C32.7882 10.3026 31.6613 10.7694 30.8304 11.6002C29.9996 12.4311 29.5328 13.558 29.5328 14.7331H25.3943C24.744 14.7342 24.1207 14.9931 23.6609 15.4529C23.2011 15.9127 22.9423 16.536 22.941 17.1862H19.2509C18.9037 17.1872 18.5703 17.323 18.3211 17.5649C18.072 17.8068 17.9264 18.1359 17.9151 18.483C17.9151 18.6661 17.9515 18.8474 18.0223 19.0162C18.093 19.1851 18.1967 19.3383 18.3272 19.4666C18.4577 19.595 18.6125 19.6962 18.7826 19.7641C18.9526 19.8321 19.1345 19.8656 19.3176 19.8625H22.9479V22.6031H19.2509C18.9045 22.6029 18.5715 22.7373 18.3222 22.9779C18.073 23.2186 17.927 23.5467 17.9151 23.8929C17.9151 24.0758 17.9514 24.2569 18.022 24.4256C18.0927 24.5944 18.1961 24.7474 18.3264 24.8758C18.4567 25.0041 18.6112 25.1053 18.781 25.1734C18.9508 25.2415 19.1324 25.2752 19.3153 25.2724H22.9479C22.9492 25.9227 23.208 26.5459 23.6678 27.0057C24.1276 27.4656 24.7509 27.7244 25.4012 27.7256H29.5397C29.5397 28.9007 30.0064 30.0275 30.8373 30.8585C31.6682 31.6893 32.7951 32.1561 33.9702 32.1561H51.5335C52.7085 32.1561 53.8354 31.6893 54.6663 30.8585C55.4972 30.0275 55.964 28.9007 55.964 27.7256V25.3299C59.3299 25.3299 62.5582 26.667 64.938 29.0471C67.3184 31.4272 68.6554 34.6553 68.6554 38.0213V53.3774C68.6554 57.4277 67.0465 61.3123 64.1826 64.1764C61.3189 67.0409 57.4346 68.6504 53.3843 68.651H15.2733C11.2226 68.651 7.33776 67.0415 4.47346 64.177C1.60915 61.313 0 57.4281 0 53.3774V51.5151H12.6914V53.9154C12.6914 55.0904 13.1582 56.2174 13.989 57.0482C14.8199 57.8791 15.9468 58.3459 17.1219 58.3459H34.6875C35.8624 58.3453 36.9889 57.8783 37.8197 57.0476C38.6504 56.2168 39.1174 55.0903 39.118 53.9154H43.2565C43.9063 53.9148 44.5293 53.6564 44.9888 53.1969C45.4483 52.7374 45.7068 52.1143 45.7074 51.4645H49.4067C49.7616 51.4645 50.102 51.3235 50.3529 51.0725C50.6039 50.8216 50.7449 50.4813 50.7449 50.1264C50.7449 49.7715 50.6039 49.4311 50.3529 49.1802C50.102 48.9293 49.7616 48.7883 49.4067 48.7883H45.6982V46.0523H49.3975C49.7421 46.0526 50.0734 45.9198 50.3224 45.6815C50.5713 45.4433 50.7186 45.1181 50.7333 44.774C50.7358 44.5895 50.7013 44.4064 50.6318 44.2355C50.5623 44.0646 50.4592 43.9094 50.3286 43.7791C50.1981 43.6488 50.0427 43.546 49.8717 43.4767C49.7007 43.4075 49.5176 43.3732 49.3332 43.376H45.6982C45.6982 42.726 45.44 42.1026 44.9803 41.643C44.5207 41.1833 43.8973 40.9251 43.2473 40.9251H39.1088C39.1082 39.7503 38.6412 38.6237 37.8105 37.793C36.9797 36.9622 35.8532 36.4952 34.6783 36.4947H17.1127C15.9393 36.4971 14.8147 36.9649 13.9858 37.7955C13.1569 38.6261 12.6914 39.7517 12.6914 40.9251V43.3254C9.32561 43.3249 6.09786 41.9875 3.71789 39.6076C1.33793 37.2276 0.000609577 33.9998 0 30.6341V15.2733C0 11.2226 1.60915 7.33776 4.47346 4.47346C7.33776 1.60915 11.2226 0 15.2733 0H53.3774C57.4261 0.00304738 61.308 1.61355 64.1696 4.47753C67.0316 7.34149 68.6392 11.2246 68.6392 15.2733V17.1357H55.9571Z" fill="white"/>
</g>
<path d="M245.886 39.8005C245.886 46.3419 248.421 49.6126 253.491 49.6126C258.561 49.6126 261.097 46.3419 261.097 39.8005C261.097 33.4182 258.561 30.227 253.491 30.227C248.421 30.227 245.886 33.4182 245.886 39.8005ZM237.983 39.9198C237.983 29.4218 243.152 24.1727 253.491 24.1727C263.83 24.1727 269 29.4218 269 39.9198C269 50.398 263.83 55.6371 253.491 55.6371C243.192 55.6371 238.023 50.398 237.983 39.9198Z" fill="white"/>
<path d="M226.558 32.4341C224.927 31.3604 222.88 30.8236 220.414 30.8236C215.503 30.8236 213.048 33.5774 213.048 39.0849C213.048 45.6263 215.602 48.897 220.712 48.897C222.78 48.897 224.729 48.6087 226.558 48.0321V32.4341ZM234.461 53.6986C229.669 54.9512 224.987 55.5775 220.414 55.5775C210.294 55.5775 205.234 50.1496 205.234 39.2936C205.234 29.2728 210.184 24.2623 220.086 24.2623C222.194 24.2623 224.351 24.7594 226.558 25.7535V12.9292H234.461V53.6986Z" fill="white"/>
<path d="M173.2 55.5775V24.2623H179.314L180.299 28.8552C183.301 25.7933 186.721 24.2623 190.558 24.2623C197.974 24.2623 201.682 28.1196 201.682 35.834V55.5775H193.779V35.834C193.779 32.3745 192.059 30.6447 188.619 30.6447C186.055 30.6447 183.549 31.6686 181.104 33.7165V55.5775H173.2Z" fill="white"/>
<path d="M155.453 24.2623C164.957 24.2623 169.709 29.1137 169.709 38.8164C169.709 40.1088 169.619 41.4012 169.44 42.6936H148.653C148.653 47.1075 151.894 49.3145 158.375 49.3145C161.537 49.3145 164.698 49.0163 167.859 48.4198V54.6828C165.096 55.2793 161.736 55.5775 157.779 55.5775C146.426 55.5775 140.749 50.239 140.749 39.562C140.749 29.3622 145.65 24.2623 155.453 24.2623ZM148.653 37.206H162.014V36.9674C162.014 32.6329 159.827 30.4657 155.453 30.4657C151.277 30.4657 149.011 32.7125 148.653 37.206Z" fill="white"/>
<path d="M124.374 19.1921H130.219L131.412 24.2622H139.286V30.5253H132.277V44.9303C132.277 47.853 133.539 49.3144 136.065 49.3144H139.286V55.5774H132.247C126.998 55.5774 124.374 52.764 124.374 47.1372V19.1921Z" fill="white"/>
<path d="M89.0896 53.788V46.6302C93.3644 48.2209 98.1959 49.0162 103.584 49.0162C110.125 49.0162 113.396 46.8291 113.396 42.4549C113.396 39.2736 111.388 37.683 107.372 37.683H100.691C91.9626 37.683 87.5984 33.7065 87.5984 25.7534C87.5984 17.005 93.8117 12.6309 106.238 12.6309C111.01 12.6309 115.534 13.3268 119.808 14.7185V21.8763C115.534 20.2857 111.01 19.4904 106.238 19.4904C99.0806 19.4904 95.5018 21.5781 95.5018 25.7534C95.5018 28.9347 97.2315 30.5253 100.691 30.5253H107.372C116.657 30.5253 121.3 34.5018 121.3 42.4549C121.3 51.4021 115.394 55.8757 103.584 55.8757C98.1959 55.8757 93.3644 55.1798 89.0896 53.788Z" fill="white"/>
<defs>
<clipPath id="clip0_1_46">
<rect width="68.8974" height="68.8974" fill="white"/>
</clipPath>
</defs>
</svg>
